<svg enable-background="new 0 0 52.2 44.3" viewBox="0 0 52.2 44.3" xmlns="http://www.w3.org/2000/svg"><path d="m48.7 19.1-8.7-15.1c-1-1.8-3-3-5.2-3h-17.4c-2.2 0-4.1 1.1-5.2 3l-8.7 15.1c-1.1 1.9-1.1 4.1 0 6l8.7 15.1c1.1 1.9 3 3 5.2 3h17.4c2.1 0 4.1-1.1 5.2-3l8.7-15.1c1.1-1.8 1.1-4.1 0-6zm-34.4 5.9c-.1-.1-.2-.2-.2-.4v-3.3c0-.2.1-.3.2-.4s.2-.2.4-.2h5.7l-2.5 4.3h-3.2c-.2.1-.3.1-.4 0zm3.9 6.2-1.8 1.2c-.1.1-.2.1-.3.1s-.1-.2-.1-.3l.2-2.1c0-.2.1-.2.2-.3s.2-.1.3 0l1.4.8c.1.1.2.2.2.3.1.1.1.2-.1.3zm.9-1.1c-.2.1-.3 0-.4-.1l-1.4-.8c-.2-.1-.3-.2-.3-.3s0-.3.1-.4l6.5-11.4c.1-.1.2-.2.3-.2.2 0 .3 0 .4.1l1.4.8.3.3c0 .2 0 .3-.1.4l-6.6 11.3c0 .1-.1.2-.2.3zm4.6-5 2.5-4.3h1.4l2 4.3zm8.1 1.3c-.2-.1-.9-1.4-2-3.7-.7-1.6-1.4-3.2-2.1-4.8l-.5-1.2c-.7-1.5-1.2-2.6-1.4-3.3-.5-1.2-.5-1.9-.3-2.1.2-.1.5.2.9.9.3.4.8 1.2 1.4 2.4.6 1 1 1.7 1.3 2.1.8 1.2 2.2 3.7 4.2 7.6l.3.6c.2.3.2.5-.1.9-.2.2-.4.4-.6.5l-.2.1c-.2.1-.3.1-.4.2-.1 0-.3-.1-.5-.2zm1.8 3-.8-1.4c-.1-.2-.1-.3-.1-.4.1-.2.2-.2.3-.3l.8-.4c.2-.1.3-.1.5 0s.3.2.4.3l.7 1.3c.1.2.1.3 0 .5 0 .2-.2.3-.3.4l-.6.3c-.2.1-.3.1-.5.1-.2-.2-.3-.3-.4-.4zm3.2 3.5c-.1-.1-.2-.2-.3-.3s-.3-.2-.5-.3c-.3-.1-.5-.2-.7-.3s-.5-.3-.6-.5c-.2-.3-.3-.7-.2-.9 0-.2.2-.3.4-.5.6-.3 1-.4 1.4-.1.3.2.5.5.6 1.1.1.4.1.8.1 1.3zm1.2-8.3c0 .1 0 .2-.2.4-.1.1-.2.2-.4.2h-2.9c0-.2-.1-.4-.2-.5l-1-1.9c-.4-.8-.8-1.5-1-2h5.1c.2 0 .3.1.4.2s.2.2.2.4z" fill="#ff6b81"/></svg>